<svg width="24" height="24" viewBox="0 0 24 24" fill="none" xmlns="http://www.w3.org/2000/svg">
<path d="M12.5411 2.97916L21.5079 19.2048C21.6698 19.4977 21.5588 19.8638 21.2599 20.0224C21.1699 20.0702 21.0692 20.0953 20.9668 20.0953H3.03323C2.69336 20.0953 2.41785 19.8252 2.41785 19.4921C2.41785 19.3918 2.44338 19.293 2.49213 19.2048L11.4589 2.97916C11.6208 2.68624 11.9943 2.57741 12.2931 2.73607C12.3981 2.7918 12.4843 2.87626 12.5411 2.97916Z" fill="#D0021B"/>
<path d="M11.835 8.63495C12.6961 8.63495 13.3941 9.31916 13.3941 10.1632C13.3941 10.2493 13.3867 10.3353 13.3719 10.4203L12.7402 14.0481C12.6689 14.4576 12.3068 14.7572 11.8829 14.7572C11.4575 14.7572 11.0925 14.4599 11.0147 14.0499L10.3251 10.4155C10.17 9.59819 10.7202 8.81236 11.5541 8.66033C11.6467 8.64345 11.7407 8.63495 11.835 8.63495Z" fill="white"/>
<path d="M11.9139 17.381C12.4373 17.381 12.8616 16.9894 12.8616 16.5064C12.8616 16.0233 12.4373 15.6318 11.9139 15.6318C11.3905 15.6318 10.9662 16.0233 10.9662 16.5064C10.9662 16.9894 11.3905 17.381 11.9139 17.381Z" fill="white"/>
</svg>
