<svg width="20" height="18" viewBox="0 0 20 18" fill="none" xmlns="http://www.w3.org/2000/svg">
<path d="M12.9167 3.58333C13.8333 3.58333 14.5833 2.83333 14.5833 1.91667C14.5833 1 13.8333 0.25 12.9167 0.25C12 0.25 11.25 1 11.25 1.91667C11.25 2.83333 12 3.58333 12.9167 3.58333ZM4.16667 9C1.83333 9 0 10.8333 0 13.1667C0 15.5 1.83333 17.3333 4.16667 17.3333C6.5 17.3333 8.33333 15.5 8.33333 13.1667C8.33333 10.8333 6.5 9 4.16667 9ZM4.16667 16.0833C2.58333 16.0833 1.25 14.75 1.25 13.1667C1.25 11.5833 2.58333 10.25 4.16667 10.25C5.75 10.25 7.08333 11.5833 7.08333 13.1667C7.08333 14.75 5.75 16.0833 4.16667 16.0833ZM9 7.75L11 5.75L11.6667 6.41667C12.75 7.5 14.1667 8.16667 15.9167 8.16667V6.5C14.6667 6.5 13.6667 6 12.9167 5.25L11.3333 3.66667C10.9167 3.33333 10.5 3.16667 10 3.16667C9.5 3.16667 9.08333 3.33333 8.83333 3.66667L6.5 6C6.16667 6.33333 6 6.75 6 7.16667C6 7.66667 6.16667 8.08333 6.5 8.33333L9.16667 10.6667V14.8333H10.8333V9.66667L9 7.75ZM15.8333 9C13.5 9 11.6667 10.8333 11.6667 13.1667C11.6667 15.5 13.5 17.3333 15.8333 17.3333C18.1667 17.3333 20 15.5 20 13.1667C20 10.8333 18.1667 9 15.8333 9ZM15.8333 16.0833C14.25 16.0833 12.9167 14.75 12.9167 13.1667C12.9167 11.5833 14.25 10.25 15.8333 10.25C17.4167 10.25 18.75 11.5833 18.75 13.1667C18.75 14.75 17.4167 16.0833 15.8333 16.0833Z" fill="black"/>
</svg>
