<svg width="173" height="36" viewBox="0 0 173 36" fill="none" xmlns="http://www.w3.org/2000/svg">
<rect x="0.5" y="0.5" width="172" height="35" rx="17.5" stroke="#28430A"/>
<path d="M44.0117 23V13.0469H47.4229C48.5485 13.0469 49.4053 13.2725 49.9932 13.7236C50.5811 14.1748 50.875 14.847 50.875 15.7402C50.875 16.196 50.752 16.6061 50.5059 16.9707C50.2598 17.3353 49.8997 17.6178 49.4258 17.8184C49.9635 17.9642 50.3783 18.2399 50.6699 18.6455C50.9661 19.0465 51.1143 19.5296 51.1143 20.0947C51.1143 21.029 50.8135 21.7467 50.2119 22.248C49.6149 22.7493 48.7581 23 47.6416 23H44.0117ZM45.7412 18.5088V21.6191H47.6621C48.2044 21.6191 48.6283 21.4847 48.9336 21.2158C49.2389 20.9469 49.3916 20.5732 49.3916 20.0947C49.3916 19.0602 48.863 18.5316 47.8057 18.5088H45.7412ZM45.7412 17.2373H47.4365C47.9743 17.2373 48.3936 17.1165 48.6943 16.875C48.9997 16.6289 49.1523 16.2826 49.1523 15.8359C49.1523 15.3438 49.0111 14.9883 48.7285 14.7695C48.4505 14.5508 48.0153 14.4414 47.4229 14.4414H45.7412V17.2373ZM60.124 13.0469V19.6982C60.124 20.7555 59.7845 21.5941 59.1055 22.2139C58.431 22.8291 57.5309 23.1367 56.4053 23.1367C55.266 23.1367 54.3613 22.8337 53.6914 22.2275C53.0215 21.6169 52.6865 20.7715 52.6865 19.6914V13.0469H54.4092V19.7051C54.4092 20.3704 54.5778 20.8786 54.915 21.2295C55.2523 21.5804 55.749 21.7559 56.4053 21.7559C57.736 21.7559 58.4014 21.054 58.4014 19.6504V13.0469H60.124ZM65.2236 17.7637L67.5137 13.0469H69.4277L66.0918 19.3359V23H64.3555V19.3359L61.0127 13.0469H62.9336L65.2236 17.7637ZM80.7754 14.4414H77.6719V23H75.9561V14.4414H72.8799V13.0469H80.7754V14.4414ZM83.9131 23H82.1904V13.0469H83.9131V23ZM93.6338 19.7598C93.5335 20.8216 93.1416 21.651 92.458 22.248C91.7744 22.8405 90.8652 23.1367 89.7305 23.1367C88.9375 23.1367 88.238 22.9499 87.6318 22.5762C87.0303 22.1979 86.5654 21.6624 86.2373 20.9697C85.9092 20.277 85.7383 19.4727 85.7246 18.5566V17.627C85.7246 16.6882 85.891 15.861 86.2236 15.1455C86.5563 14.43 87.0326 13.8786 87.6523 13.4912C88.2767 13.1038 88.9967 12.9102 89.8125 12.9102C90.9108 12.9102 91.7949 13.2087 92.4648 13.8057C93.1348 14.4027 93.5244 15.2458 93.6338 16.335H91.9111C91.8291 15.6195 91.6195 15.1045 91.2822 14.79C90.9495 14.471 90.4596 14.3115 89.8125 14.3115C89.0605 14.3115 88.4818 14.5872 88.0762 15.1387C87.6751 15.6855 87.4701 16.4899 87.4609 17.5518V18.4336C87.4609 19.5091 87.6523 20.3294 88.0352 20.8945C88.4225 21.4596 88.9876 21.7422 89.7305 21.7422C90.4095 21.7422 90.9199 21.5895 91.2617 21.2842C91.6035 20.9788 91.82 20.4707 91.9111 19.7598H93.6338ZM98.043 18.7002L96.915 19.8965V23H95.1855V13.0469H96.915V17.7158L97.8721 16.5332L100.784 13.0469H102.876L99.1777 17.4561L103.088 23H101.037L98.043 18.7002ZM109.835 18.5566H105.747V21.6191H110.525V23H104.018V13.0469H110.478V14.4414H105.747V17.1895H109.835V18.5566ZM119.262 14.4414H116.158V23H114.442V14.4414H111.366V13.0469H119.262V14.4414ZM131.546 23H129.816L125.38 15.9385V23H123.65V13.0469H125.38L129.83 20.1357V13.0469H131.546V23ZM141.533 18.2832C141.533 19.2585 141.365 20.1152 141.027 20.8535C140.69 21.5872 140.207 22.1523 139.578 22.5488C138.954 22.9408 138.234 23.1367 137.418 23.1367C136.611 23.1367 135.891 22.9408 135.258 22.5488C134.629 22.1523 134.141 21.5895 133.795 20.8604C133.453 20.1312 133.28 19.2904 133.275 18.3379V17.7773C133.275 16.8066 133.446 15.9499 133.788 15.207C134.134 14.4642 134.62 13.8968 135.244 13.5049C135.873 13.1084 136.593 12.9102 137.404 12.9102C138.215 12.9102 138.933 13.1061 139.558 13.498C140.187 13.8854 140.672 14.446 141.014 15.1797C141.355 15.9089 141.529 16.7588 141.533 17.7295V18.2832ZM139.804 17.7637C139.804 16.6608 139.594 15.8154 139.175 15.2275C138.76 14.6396 138.17 14.3457 137.404 14.3457C136.657 14.3457 136.071 14.6396 135.647 15.2275C135.228 15.8109 135.014 16.638 135.005 17.709V18.2832C135.005 19.377 135.217 20.2223 135.641 20.8193C136.069 21.4163 136.661 21.7148 137.418 21.7148C138.184 21.7148 138.771 21.4232 139.182 20.8398C139.596 20.2565 139.804 19.4043 139.804 18.2832V17.7637ZM151.062 20.5391L152.594 13.0469H154.31L152.013 23H150.358L148.465 15.7334L146.53 23H144.869L142.572 13.0469H144.288L145.833 20.5254L147.733 13.0469H149.183L151.062 20.5391Z" fill="#28430A"/>
<path d="M35.7099 17.29L26.7099 8.29C26.3199 7.9 25.6899 7.9 25.2999 8.29L16.2999 17.29C15.9099 17.68 15.9099 18.31 16.2999 18.7L25.2999 27.7C25.6899 28.09 26.3199 28.09 26.7099 27.7L35.7099 18.7C36.0999 18.32 36.0999 17.69 35.7099 17.29ZM27.9999 20.5V18H23.9999V21H21.9999V17C21.9999 16.45 22.4499 16 22.9999 16H27.9999V13.5L31.4999 17L27.9999 20.5Z" fill="#28430A"/>
</svg>
