<svg width="24" height="24" viewBox="0 0 24 24" fill="none" xmlns="http://www.w3.org/2000/svg">
<circle cx="12" cy="12" r="12" fill="#51A625"/>
<path d="M9.4082 12.0098L9.91406 7.04688H15.0137V8.21582H10.9873L10.6865 10.9297C11.1742 10.6426 11.7279 10.499 12.3477 10.499C13.2546 10.499 13.9746 10.7998 14.5078 11.4014C15.041 11.9984 15.3076 12.8073 15.3076 13.8281C15.3076 14.8535 15.0296 15.6624 14.4736 16.2549C13.9222 16.8428 13.1497 17.1367 12.1562 17.1367C11.2767 17.1367 10.5589 16.8929 10.0029 16.4053C9.44694 15.9176 9.13021 15.2432 9.05273 14.3818H10.249C10.3265 14.9515 10.5293 15.3822 10.8574 15.6738C11.1855 15.9609 11.6185 16.1045 12.1562 16.1045C12.7441 16.1045 13.2044 15.904 13.5371 15.5029C13.8743 15.1019 14.043 14.5482 14.043 13.8418C14.043 13.1764 13.8607 12.6432 13.4961 12.2422C13.1361 11.8366 12.6553 11.6338 12.0537 11.6338C11.5023 11.6338 11.0693 11.7546 10.7549 11.9961L10.4199 12.2695L9.4082 12.0098Z" fill="white"/>
</svg>
