<svg width="24" height="24" viewBox="0 0 24 24" fill="none" xmlns="http://www.w3.org/2000/svg">
<circle cx="12" cy="12" r="12" fill="#51A625"/>
<path d="M14.8633 9.64453C14.8633 10.1413 14.7311 10.5833 14.4668 10.9707C14.207 11.3581 13.8538 11.6611 13.4072 11.8799C13.9268 12.1032 14.3369 12.429 14.6377 12.8574C14.943 13.2858 15.0957 13.7712 15.0957 14.3135C15.0957 15.1748 14.804 15.8607 14.2207 16.3711C13.6419 16.8815 12.8786 17.1367 11.9307 17.1367C10.9736 17.1367 10.2057 16.8815 9.62695 16.3711C9.05273 15.8561 8.76562 15.1702 8.76562 14.3135C8.76562 13.7757 8.91146 13.2904 9.20312 12.8574C9.49935 12.4245 9.90723 12.0964 10.4268 11.873C9.9847 11.6543 9.63607 11.3512 9.38086 10.9639C9.12565 10.5765 8.99805 10.1367 8.99805 9.64453C8.99805 8.80599 9.26693 8.14062 9.80469 7.64844C10.3424 7.15625 11.0511 6.91016 11.9307 6.91016C12.8057 6.91016 13.512 7.15625 14.0498 7.64844C14.5921 8.14062 14.8633 8.80599 14.8633 9.64453ZM13.8311 14.2861C13.8311 13.7301 13.6533 13.2767 13.2979 12.9258C12.9469 12.5749 12.4867 12.3994 11.917 12.3994C11.3473 12.3994 10.8893 12.5726 10.543 12.9189C10.2012 13.2653 10.0303 13.721 10.0303 14.2861C10.0303 14.8512 10.1966 15.2956 10.5293 15.6191C10.8665 15.9427 11.3337 16.1045 11.9307 16.1045C12.5231 16.1045 12.988 15.9427 13.3252 15.6191C13.6624 15.291 13.8311 14.8467 13.8311 14.2861ZM11.9307 7.94922C11.4339 7.94922 11.0306 8.10417 10.7207 8.41406C10.4154 8.7194 10.2627 9.13639 10.2627 9.66504C10.2627 10.1709 10.4131 10.5811 10.7139 10.8955C11.0192 11.2054 11.4248 11.3604 11.9307 11.3604C12.4365 11.3604 12.8398 11.2054 13.1406 10.8955C13.446 10.5811 13.5986 10.1709 13.5986 9.66504C13.5986 9.15918 13.4414 8.74674 13.127 8.42773C12.8125 8.10872 12.4137 7.94922 11.9307 7.94922Z" fill="white"/>
</svg>
