<svg width="24" height="24" viewBox="0 0 24 24" fill="none" xmlns="http://www.w3.org/2000/svg">
<circle cx="12" cy="12" r="12" fill="#51A625"/>
<path d="M13.79 7.04004V8.11328H13.5576C12.5732 8.13151 11.7894 8.42318 11.2061 8.98828C10.6227 9.55339 10.2855 10.3486 10.1943 11.374C10.7184 10.7725 11.4339 10.4717 12.3408 10.4717C13.2067 10.4717 13.8971 10.777 14.4121 11.3877C14.9316 11.9984 15.1914 12.7868 15.1914 13.7529C15.1914 14.7783 14.9111 15.5986 14.3506 16.2139C13.7946 16.8291 13.0472 17.1367 12.1084 17.1367C11.1559 17.1367 10.3835 16.7721 9.79102 16.043C9.19857 15.3092 8.90234 14.3659 8.90234 13.2129V12.7275C8.90234 10.8955 9.29199 9.49642 10.0713 8.53027C10.8551 7.55957 12.0195 7.06283 13.5645 7.04004H13.79ZM12.1289 11.5244C11.696 11.5244 11.2972 11.6543 10.9326 11.9141C10.568 12.1738 10.3151 12.4997 10.1738 12.8916V13.3564C10.1738 14.1768 10.3584 14.8376 10.7275 15.3389C11.0967 15.8402 11.557 16.0908 12.1084 16.0908C12.6781 16.0908 13.1247 15.8812 13.4482 15.4619C13.7764 15.0426 13.9404 14.4935 13.9404 13.8145C13.9404 13.1309 13.7741 12.5794 13.4414 12.1602C13.1133 11.7363 12.6758 11.5244 12.1289 11.5244Z" fill="white"/>
</svg>
