<svg width="24" height="24" viewBox="0 0 24 24" fill="none" xmlns="http://www.w3.org/2000/svg">
<circle cx="12" cy="12" r="12" fill="#51A625"/>
<path d="M13.6738 12.625C13.4095 12.9395 13.0928 13.1924 12.7236 13.3838C12.359 13.5752 11.958 13.6709 11.5205 13.6709C10.9463 13.6709 10.445 13.5296 10.0166 13.2471C9.59277 12.9645 9.26465 12.568 9.03223 12.0576C8.7998 11.5426 8.68359 10.9753 8.68359 10.3555C8.68359 9.6901 8.80892 9.09082 9.05957 8.55762C9.31478 8.02441 9.6748 7.61654 10.1396 7.33398C10.6045 7.05143 11.1468 6.91016 11.7666 6.91016C12.751 6.91016 13.5257 7.2793 14.0908 8.01758C14.6605 8.7513 14.9453 9.75391 14.9453 11.0254V11.3945C14.9453 13.3314 14.5625 14.7464 13.7969 15.6396C13.0312 16.5283 11.876 16.984 10.3311 17.0068H10.085V15.9404H10.3516C11.3952 15.9222 12.1973 15.651 12.7578 15.127C13.3184 14.5983 13.6237 13.7643 13.6738 12.625ZM11.7256 12.625C12.1494 12.625 12.5391 12.4951 12.8945 12.2354C13.2546 11.9756 13.5166 11.6543 13.6807 11.2715V10.7656C13.6807 9.9362 13.5007 9.26172 13.1406 8.74219C12.7806 8.22266 12.3249 7.96289 11.7734 7.96289C11.2174 7.96289 10.7708 8.17708 10.4336 8.60547C10.0964 9.0293 9.92773 9.58984 9.92773 10.2871C9.92773 10.9661 10.0895 11.5267 10.4131 11.9688C10.7412 12.4062 11.1787 12.625 11.7256 12.625Z" fill="white"/>
</svg>
