<svg width="24" height="24" viewBox="0 0 24 24" fill="none" xmlns="http://www.w3.org/2000/svg">
<circle cx="12" cy="12" r="12" fill="#51A625"/>
<path d="M10.666 11.4082H11.6162C12.2132 11.3991 12.6826 11.2419 13.0244 10.9365C13.3662 10.6312 13.5371 10.2188 13.5371 9.69922C13.5371 8.53255 12.9561 7.94922 11.7939 7.94922C11.2471 7.94922 10.8096 8.10645 10.4814 8.4209C10.1579 8.73079 9.99609 9.14323 9.99609 9.6582H8.73145C8.73145 8.86979 9.01855 8.21582 9.59277 7.69629C10.1715 7.1722 10.9053 6.91016 11.7939 6.91016C12.7327 6.91016 13.4688 7.15853 14.002 7.65527C14.5352 8.15202 14.8018 8.84245 14.8018 9.72656C14.8018 10.1595 14.6605 10.5788 14.3779 10.9844C14.0999 11.39 13.7194 11.693 13.2363 11.8936C13.7832 12.0667 14.2048 12.3538 14.501 12.7549C14.8018 13.1559 14.9521 13.6458 14.9521 14.2246C14.9521 15.1178 14.6605 15.8265 14.0771 16.3506C13.4938 16.8747 12.735 17.1367 11.8008 17.1367C10.8665 17.1367 10.1055 16.8838 9.51758 16.3779C8.93424 15.8721 8.64258 15.2044 8.64258 14.375H9.91406C9.91406 14.8991 10.085 15.3184 10.4268 15.6328C10.7686 15.9473 11.2266 16.1045 11.8008 16.1045C12.4115 16.1045 12.8786 15.945 13.2021 15.626C13.5257 15.307 13.6875 14.849 13.6875 14.252C13.6875 13.6732 13.5098 13.2288 13.1543 12.9189C12.7988 12.609 12.2861 12.4495 11.6162 12.4404H10.666V11.4082Z" fill="white"/>
</svg>
