<svg width="24" height="24" viewBox="0 0 24 24" fill="none" xmlns="http://www.w3.org/2000/svg">
<circle cx="12" cy="12" r="12" fill="#B5B5B5"/>
<path d="M15.3486 17H8.82715V16.0908L12.2725 12.2627C12.7829 11.6839 13.1338 11.2145 13.3252 10.8545C13.5212 10.4899 13.6191 10.1139 13.6191 9.72656C13.6191 9.20703 13.4619 8.78092 13.1475 8.44824C12.833 8.11556 12.4137 7.94922 11.8896 7.94922C11.2607 7.94922 10.7708 8.12923 10.4199 8.48926C10.0736 8.84473 9.90039 9.34147 9.90039 9.97949H8.63574C8.63574 9.06348 8.92969 8.32292 9.51758 7.75781C10.11 7.19271 10.9007 6.91016 11.8896 6.91016C12.8148 6.91016 13.5462 7.15397 14.084 7.6416C14.6217 8.12467 14.8906 8.76953 14.8906 9.57617C14.8906 10.556 14.2663 11.7227 13.0176 13.0762L10.3516 15.9678H15.3486V17Z" fill="white"/>
</svg>
