<svg width="20" height="17" viewBox="0 0 20 17" fill="none" xmlns="http://www.w3.org/2000/svg">
<path d="M17.9583 3.71088C17.909 3.42644 17.7693 3.16549 17.5598 2.9668C17.3504 2.76812 17.0825 2.6423 16.7958 2.60805L16.5574 0.655738L15.6185 1.60954L14.9925 0L12.4292 6.22951L4.38152 6.52757C3.67665 6.4729 3.00758 6.19486 2.47155 5.73388C1.93552 5.27289 1.56046 4.65298 1.40089 3.96423L0 4.48584C0.167068 5.23337 0.531811 5.92232 1.05613 6.48071C1.58044 7.03911 2.24509 7.44646 2.98063 7.66021C2.67794 8.32188 2.58426 9.06012 2.71207 9.77642C2.83989 10.4927 3.18312 11.153 3.69598 11.6692C3.21908 11.9821 2.77198 12.2653 2.50372 12.4143L2.10134 12.6528L2.3845 15.9165L3.87481 15.7824L3.66617 13.4575C4.89219 12.7504 6.01123 11.8722 6.98957 10.8495H7.09389L13.5767 11.7437L13.8897 16.0656L15.38 15.9463L15.082 11.9374C16.1252 11.6542 16.7213 6.60209 16.7213 6.60209C17.3943 6.67578 18.0734 6.53543 18.662 6.20099C19.2506 5.86654 19.7188 5.35503 20 4.7392L17.9583 3.71088Z" fill="black"/>
</svg>
