<svg width="20" height="20" viewBox="0 0 20 20" fill="none" xmlns="http://www.w3.org/2000/svg">
<path d="M2.34031 17.3954C2.34031 18.0114 2.84421 18.5101 3.46538 18.5101H16.5873C17.2085 18.5101 17.7124 18.0114 17.7124 17.3954V11.4466H18.4611V17.3954C18.4611 18.4212 17.6234 19.2537 16.5873 19.2537H3.46538C2.43052 19.2537 1.59155 18.4212 1.59155 17.3954V7.72986L2.34031 7.89482V17.3954Z" fill="black"/>
<path fill-rule="evenodd" clip-rule="evenodd" d="M17.7122 9.95935H19.0009V11.2481H17.7122V9.95935Z" fill="black"/>
<path d="M4.96527 10.7031C4.75907 10.7031 4.59025 10.8706 4.59025 11.0755V18.1378C4.59025 18.344 4.75778 18.5115 4.96398 18.5115H8.71421C8.9204 18.5115 9.08794 18.344 9.08794 18.1378V11.0755C9.08794 10.8693 8.9204 10.7031 8.71421 10.7031H4.96398H4.96527ZM4.96527 9.95947H8.71421C9.33538 9.95947 9.83927 10.4595 9.83927 11.0755V18.1378C9.83927 18.7551 9.33538 19.2538 8.71421 19.2538H4.96398C4.3441 19.2538 3.8402 18.7551 3.8402 18.1391V11.0755C3.8402 10.4595 4.34281 9.95947 4.96527 9.95947ZM1.59135 6.80077C1.59135 7.29436 2.07721 7.72866 2.71513 7.72866C3.35306 7.72866 3.8402 7.29436 3.8402 6.80077V6.24275H1.59135V6.80077ZM0.841309 5.49915H4.59025V6.80077C4.59025 7.72351 3.75128 8.47355 2.71513 8.47355C1.68028 8.47355 0.841309 7.72351 0.841309 6.80077V5.49915Z" fill="black"/>
<path d="M4.96538 6.80077C4.96538 7.29436 5.45252 7.72866 6.08916 7.72866C6.72708 7.72866 7.21422 7.29436 7.21422 6.80077V6.24275H4.96538V6.80077ZM4.21533 5.49915H7.96427V6.80077C7.96427 7.72351 7.1253 8.47355 6.08916 8.47355C5.0543 8.47355 4.21533 7.72351 4.21533 6.80077V5.49915ZM8.71431 6.80077C8.71431 7.29436 9.20146 7.72866 9.83938 7.72866C10.476 7.72866 10.9632 7.29436 10.9632 6.80077V6.24275H8.71431V6.80077ZM7.96427 5.49915H11.7145V6.80077C11.7145 7.72351 10.8742 8.47355 9.83938 8.47355C8.80324 8.47355 7.96427 7.72351 7.96427 6.80077V5.49915Z" fill="black"/>
<path d="M12.4619 6.80077C12.4619 7.29436 12.9503 7.72866 13.5882 7.72866C14.2249 7.72866 14.712 7.29436 14.712 6.80077V6.24275H12.4632V6.80077H12.4619ZM11.7144 5.49915H15.4621V6.80077C15.4621 7.72351 14.6231 8.47355 13.5882 8.47355C12.5521 8.47355 11.7131 7.72351 11.7131 6.80077V5.49915H11.7144Z" fill="black"/>
<path d="M15.8382 6.80077C15.8382 7.29436 16.3241 7.72866 16.962 7.72866C17.6 7.72866 18.0871 7.29436 18.0871 6.80077V6.24275H15.837V6.80077H15.8382ZM15.0869 5.49915H18.8371V6.80077C18.8371 7.72351 17.9969 8.47355 16.962 8.47355C15.9259 8.47355 15.0869 7.72351 15.0869 6.80077V5.49915Z" fill="black"/>
<path fill-rule="evenodd" clip-rule="evenodd" d="M14.3073 17.1492H13.7223V16.3759C12.681 16.2728 12.1706 15.5589 12.0881 14.9042L12.8008 14.6812C12.8459 15.1581 13.1307 15.6182 13.7223 15.7225V14.1683L13.5354 14.131C12.7699 13.975 12.2905 13.5059 12.2905 12.7778C12.2905 12.0716 12.8833 11.4697 13.7223 11.3653V10.5844H14.3073V11.3731C15.2301 11.4916 15.5896 12.1012 15.7095 12.5845L15.0355 12.8293C14.9904 12.5471 14.7648 12.1605 14.3073 12.0342V13.5588L14.4195 13.5807C15.252 13.7443 15.7546 14.2946 15.7546 14.9635C15.7546 15.6259 15.2597 16.2651 14.3073 16.3759V17.1492ZM15.02 15.0009C15.02 14.689 14.7945 14.399 14.3073 14.2869V15.7225C14.7945 15.6323 15.02 15.3424 15.02 15.0009ZM13.0328 12.7481C13.0328 13.06 13.2132 13.3281 13.7223 13.4247V12.011C13.2879 12.0922 13.0328 12.3821 13.0328 12.7456V12.7481Z" fill="black"/>
<path d="M1.96509 0.743602V0H18.0872V0.743602H1.96509Z" fill="black"/>
<path d="M4.68437 5.68461H3.93433V0.293823H4.68437V5.68461ZM8.05829 6.05706H7.30824V0.666268H8.05829V6.05706ZM11.8072 6.05706H11.0572V0.293823H11.8072V6.05706ZM15.5407 6.05706H14.7907V0.293823H15.5407V6.05706Z" fill="black"/>
<path fill-rule="evenodd" clip-rule="evenodd" d="M1.96531 0.294301L2.7158 0.294509L1.59165 5.4988L0.841165 5.49859L1.96531 0.294301Z" fill="black"/>
<path fill-rule="evenodd" clip-rule="evenodd" d="M18.0867 0.293838L17.3367 0.295241L18.0868 5.49916L18.8361 5.49943L18.0867 0.293838Z" fill="black"/>
</svg>
