<svg width="35" height="35" viewBox="0 0 35 35" fill="none" xmlns="http://www.w3.org/2000/svg">
<g clip-path="url(#clip0)">
<path d="M24.1063 16.1292L22.5604 14.5834L15.4438 21.7L12.3521 18.6084L10.8062 20.1542L15.4438 24.7917L24.1063 16.1292ZM27.7083 4.37504H26.25V1.45837H23.3333V4.37504H11.6667V1.45837H8.75V4.37504H7.29167C5.67292 4.37504 4.38958 5.68754 4.38958 7.29171L4.375 27.7084C4.375 29.3125 5.67292 30.625 7.29167 30.625H27.7083C29.3125 30.625 30.625 29.3125 30.625 27.7084V7.29171C30.625 5.68754 29.3125 4.37504 27.7083 4.37504ZM27.7083 27.7084H7.29167V11.6667H27.7083V27.7084Z" fill="#24C73E"/>
</g>
<defs>
<clipPath id="clip0">
<rect width="35" height="35" fill="white"/>
</clipPath>
</defs>
</svg>
