<svg width="20" height="19" viewBox="0 0 20 19" fill="none" xmlns="http://www.w3.org/2000/svg">
<path d="M19.5884 3.99553L16.8233 2.0179L17.0022 0.68457L11.3647 6.41164H9.63758V5.32887C10.4128 5.52144 11.2177 5.56397 12.0089 5.45415V3.59285C11.2054 3.7044 10.3879 3.65881 9.60179 3.45862C9.49365 3.04765 9.2428 2.68857 8.89414 2.44563C8.54547 2.20269 8.12173 2.09175 7.69875 2.13265C7.27576 2.17355 6.88113 2.36362 6.58547 2.66886C6.28981 2.9741 6.11241 3.37459 6.08501 3.79866V6.41164H1.61074C0.170022 6.41164 0 8.34453 0 8.34453V12.0582H1.41387V8.62193L2.12081 7.54811V11.6823L1.42282 12.7651V18.7964H3.27517V13.3289L4.22371 11.8434V13.6331L6.4519 18.7875L8.16107 18.0537L6.08501 13.2125L6.89038 11.8255H11.6957V18.7875H13.557V11.8345L15.6779 7.59285C15.903 7.66768 16.1385 7.70693 16.3758 7.70918C16.9439 7.71033 17.4949 7.51491 17.9353 7.15607C18.3757 6.79724 18.6783 6.29709 18.7919 5.7405C18.8486 5.74382 18.9053 5.74382 18.962 5.7405C19.2262 5.74051 19.4798 5.63615 19.6675 5.45012C19.8552 5.2641 19.9618 5.01147 19.9642 4.74721C19.9615 4.60183 19.9264 4.45887 19.8614 4.32882C19.7964 4.19876 19.7031 4.08489 19.5884 3.99553ZM16.4027 7.13647C16.2552 7.13236 16.1084 7.11439 15.9642 7.08278L16.7785 5.45415L18.2371 5.65996C18.1469 6.07904 17.9154 6.45439 17.5815 6.72318C17.2475 6.99197 16.8314 7.13787 16.4027 7.13647Z" fill="black"/>
</svg>
