<svg width="20" height="21" viewBox="0 0 20 21" fill="none" xmlns="http://www.w3.org/2000/svg">
<g clip-path="url(#clip0)">
<path d="M7.84782 3.57942C8.83624 3.57942 9.63753 2.77814 9.63753 1.78971C9.63753 0.80128 8.83624 0 7.84782 0C6.85939 0 6.05811 0.80128 6.05811 1.78971C6.05811 2.77814 6.85939 3.57942 7.84782 3.57942Z" fill="black"/>
<path d="M19.5884 5.99553L16.8233 4.0179L17.0022 2.68457L11.3647 8.41164H9.63758V7.32887C10.4128 7.52144 11.2177 7.56397 12.0089 7.45415V5.59285C11.2054 5.7044 10.3879 5.65881 9.60179 5.45862C9.49365 5.04765 9.2428 4.68857 8.89414 4.44563C8.54547 4.20269 8.12173 4.09175 7.69875 4.13265C7.27576 4.17355 6.88113 4.36362 6.58547 4.66886C6.28981 4.9741 6.11241 5.37459 6.08501 5.79866V8.41164H1.61074C0.170022 8.41164 0 10.3445 0 10.3445V14.0582H1.41387V10.6219L2.12081 9.54811V13.6823L1.42282 14.7651V20.7964H3.27517V15.3289L4.22371 13.8434V15.6331L6.4519 20.7875L8.16107 20.0537L6.08501 15.2125L6.89038 13.8255H11.6957V20.7875H13.557V13.8345L15.6779 9.59285C15.903 9.66768 16.1385 9.70693 16.3758 9.70918C16.9439 9.71033 17.4949 9.51491 17.9353 9.15607C18.3757 8.79724 18.6783 8.29709 18.7919 7.7405C18.8486 7.74382 18.9053 7.74382 18.962 7.7405C19.2262 7.74051 19.4798 7.63615 19.6675 7.45012C19.8552 7.2641 19.9618 7.01147 19.9642 6.74721C19.9615 6.60183 19.9264 6.45887 19.8614 6.32882C19.7964 6.19876 19.7031 6.08489 19.5884 5.99553ZM16.4027 9.13647C16.2552 9.13236 16.1084 9.11439 15.9642 9.08278L16.7785 7.45415L18.2371 7.65996C18.1469 8.07904 17.9154 8.45439 17.5815 8.72318C17.2475 8.99197 16.8314 9.13787 16.4027 9.13647Z" fill="black"/>
</g>
<defs>
<clipPath id="clip0">
<rect width="20" height="20.7964" fill="white"/>
</clipPath>
</defs>
</svg>
