<svg width="16" height="18" viewBox="0 0 16 18" fill="none" xmlns="http://www.w3.org/2000/svg">
<path d="M14.25 1.91667L13 0.666672L11.75 1.91667L10.5 0.666672L9.25 1.91667L8 0.666672L6.75 1.91667L5.5 0.666672L4.25 1.91667L3 0.666672V12.3333H0.5V14.8333C0.5 16.2167 1.61667 17.3333 3 17.3333H13C14.3833 17.3333 15.5 16.2167 15.5 14.8333V0.666672L14.25 1.91667ZM13.8333 14.8333C13.8333 15.2917 13.4583 15.6667 13 15.6667C12.5417 15.6667 12.1667 15.2917 12.1667 14.8333V12.3333H4.66667V3.16667H13.8333V14.8333Z" fill="black"/>
</svg>
