<svg width="24" height="29" viewBox="0 0 24 29" fill="none" xmlns="http://www.w3.org/2000/svg">
<path fill-rule="evenodd" clip-rule="evenodd" d="M24 13C23.793 20.802 12.002 29.001 12.006 29C11.998 29.003 0.218 21.457 0 13V12.793C0 5.728 5.373 0 12 0C18.629 0 24 5.728 24 12.793V13Z" fill="#51A625"/>
<path d="M15.3486 18H8.82715V17.0908L12.2725 13.2627C12.7829 12.6839 13.1338 12.2145 13.3252 11.8545C13.5212 11.4899 13.6191 11.1139 13.6191 10.7266C13.6191 10.207 13.4619 9.78092 13.1475 9.44824C12.833 9.11556 12.4137 8.94922 11.8896 8.94922C11.2607 8.94922 10.7708 9.12923 10.4199 9.48926C10.0736 9.84473 9.90039 10.3415 9.90039 10.9795H8.63574C8.63574 10.0635 8.92969 9.32292 9.51758 8.75781C10.11 8.19271 10.9007 7.91016 11.8896 7.91016C12.8148 7.91016 13.5462 8.15397 14.084 8.6416C14.6217 9.12467 14.8906 9.76953 14.8906 10.5762C14.8906 11.556 14.2663 12.7227 13.0176 14.0762L10.3516 16.9678H15.3486V18Z" fill="white"/>
</svg>
