<svg width="24" height="29" viewBox="0 0 24 29" fill="none" xmlns="http://www.w3.org/2000/svg">
<path fill-rule="evenodd" clip-rule="evenodd" d="M24 13C23.793 20.802 12.002 29.001 12.006 29C11.998 29.003 0.218 21.457 0 13V12.793C0 5.728 5.373 0 12 0C18.629 0 24 5.728 24 12.793V13Z" fill="#51A625"/>
<path d="M13.79 8.04004V9.11328H13.5576C12.5732 9.13151 11.7894 9.42318 11.2061 9.98828C10.6227 10.5534 10.2855 11.3486 10.1943 12.374C10.7184 11.7725 11.4339 11.4717 12.3408 11.4717C13.2067 11.4717 13.8971 11.777 14.4121 12.3877C14.9316 12.9984 15.1914 13.7868 15.1914 14.7529C15.1914 15.7783 14.9111 16.5986 14.3506 17.2139C13.7946 17.8291 13.0472 18.1367 12.1084 18.1367C11.1559 18.1367 10.3835 17.7721 9.79102 17.043C9.19857 16.3092 8.90234 15.3659 8.90234 14.2129V13.7275C8.90234 11.8955 9.29199 10.4964 10.0713 9.53027C10.8551 8.55957 12.0195 8.06283 13.5645 8.04004H13.79ZM12.1289 12.5244C11.696 12.5244 11.2972 12.6543 10.9326 12.9141C10.568 13.1738 10.3151 13.4997 10.1738 13.8916V14.3564C10.1738 15.1768 10.3584 15.8376 10.7275 16.3389C11.0967 16.8402 11.557 17.0908 12.1084 17.0908C12.6781 17.0908 13.1247 16.8812 13.4482 16.4619C13.7764 16.0426 13.9404 15.4935 13.9404 14.8145C13.9404 14.1309 13.7741 13.5794 13.4414 13.1602C13.1133 12.7363 12.6758 12.5244 12.1289 12.5244Z" fill="white"/>
</svg>
