<svg width="24" height="29" viewBox="0 0 24 29" fill="none" xmlns="http://www.w3.org/2000/svg">
<path fill-rule="evenodd" clip-rule="evenodd" d="M24 13C23.793 20.802 12.002 29.001 12.006 29C11.998 29.003 0.218 21.457 0 13V12.793C0 5.728 5.373 0 12 0C18.629 0 24 5.728 24 12.793V13Z" fill="#51A625"/>
<path d="M13.6738 13.625C13.4095 13.9395 13.0928 14.1924 12.7236 14.3838C12.359 14.5752 11.958 14.6709 11.5205 14.6709C10.9463 14.6709 10.445 14.5296 10.0166 14.2471C9.59277 13.9645 9.26465 13.568 9.03223 13.0576C8.7998 12.5426 8.68359 11.9753 8.68359 11.3555C8.68359 10.6901 8.80892 10.0908 9.05957 9.55762C9.31478 9.02441 9.6748 8.61654 10.1396 8.33398C10.6045 8.05143 11.1468 7.91016 11.7666 7.91016C12.751 7.91016 13.5257 8.2793 14.0908 9.01758C14.6605 9.7513 14.9453 10.7539 14.9453 12.0254V12.3945C14.9453 14.3314 14.5625 15.7464 13.7969 16.6396C13.0312 17.5283 11.876 17.984 10.3311 18.0068H10.085V16.9404H10.3516C11.3952 16.9222 12.1973 16.651 12.7578 16.127C13.3184 15.5983 13.6237 14.7643 13.6738 13.625ZM11.7256 13.625C12.1494 13.625 12.5391 13.4951 12.8945 13.2354C13.2546 12.9756 13.5166 12.6543 13.6807 12.2715V11.7656C13.6807 10.9362 13.5007 10.2617 13.1406 9.74219C12.7806 9.22266 12.3249 8.96289 11.7734 8.96289C11.2174 8.96289 10.7708 9.17708 10.4336 9.60547C10.0964 10.0293 9.92773 10.5898 9.92773 11.2871C9.92773 11.9661 10.0895 12.5267 10.4131 12.9688C10.7412 13.4062 11.1787 13.625 11.7256 13.625Z" fill="white"/>
</svg>
