<svg width="24" height="29" viewBox="0 0 24 29" fill="none" xmlns="http://www.w3.org/2000/svg">
<path fill-rule="evenodd" clip-rule="evenodd" d="M24 13C23.793 20.802 12.002 29.001 12.006 29C11.998 29.003 0.218 21.457 0 13V12.793C0 5.728 5.373 0 12 0C18.629 0 24 5.728 24 12.793V13Z" fill="#51A625"/>
<path d="M10.666 12.4082H11.6162C12.2132 12.3991 12.6826 12.2419 13.0244 11.9365C13.3662 11.6312 13.5371 11.2188 13.5371 10.6992C13.5371 9.53255 12.9561 8.94922 11.7939 8.94922C11.2471 8.94922 10.8096 9.10645 10.4814 9.4209C10.1579 9.73079 9.99609 10.1432 9.99609 10.6582H8.73145C8.73145 9.86979 9.01855 9.21582 9.59277 8.69629C10.1715 8.1722 10.9053 7.91016 11.7939 7.91016C12.7327 7.91016 13.4688 8.15853 14.002 8.65527C14.5352 9.15202 14.8018 9.84245 14.8018 10.7266C14.8018 11.1595 14.6605 11.5788 14.3779 11.9844C14.0999 12.39 13.7194 12.693 13.2363 12.8936C13.7832 13.0667 14.2048 13.3538 14.501 13.7549C14.8018 14.1559 14.9521 14.6458 14.9521 15.2246C14.9521 16.1178 14.6605 16.8265 14.0771 17.3506C13.4938 17.8747 12.735 18.1367 11.8008 18.1367C10.8665 18.1367 10.1055 17.8838 9.51758 17.3779C8.93424 16.8721 8.64258 16.2044 8.64258 15.375H9.91406C9.91406 15.8991 10.085 16.3184 10.4268 16.6328C10.7686 16.9473 11.2266 17.1045 11.8008 17.1045C12.4115 17.1045 12.8786 16.945 13.2021 16.626C13.5257 16.307 13.6875 15.849 13.6875 15.252C13.6875 14.6732 13.5098 14.2288 13.1543 13.9189C12.7988 13.609 12.2861 13.4495 11.6162 13.4404H10.666V12.4082Z" fill="white"/>
</svg>
