<svg width="24" height="29" viewBox="0 0 24 29" fill="none" xmlns="http://www.w3.org/2000/svg">
<path fill-rule="evenodd" clip-rule="evenodd" d="M24 13C23.793 20.802 12.002 29.001 12.006 29C11.998 29.003 0.218 21.457 0 13V12.793C0 5.728 5.373 0 12 0C18.629 0 24 5.728 24 12.793V13Z" fill="#51A625"/>
<path d="M14.8633 10.6445C14.8633 11.1413 14.7311 11.5833 14.4668 11.9707C14.207 12.3581 13.8538 12.6611 13.4072 12.8799C13.9268 13.1032 14.3369 13.429 14.6377 13.8574C14.943 14.2858 15.0957 14.7712 15.0957 15.3135C15.0957 16.1748 14.804 16.8607 14.2207 17.3711C13.6419 17.8815 12.8786 18.1367 11.9307 18.1367C10.9736 18.1367 10.2057 17.8815 9.62695 17.3711C9.05273 16.8561 8.76562 16.1702 8.76562 15.3135C8.76562 14.7757 8.91146 14.2904 9.20312 13.8574C9.49935 13.4245 9.90723 13.0964 10.4268 12.873C9.9847 12.6543 9.63607 12.3512 9.38086 11.9639C9.12565 11.5765 8.99805 11.1367 8.99805 10.6445C8.99805 9.80599 9.26693 9.14062 9.80469 8.64844C10.3424 8.15625 11.0511 7.91016 11.9307 7.91016C12.8057 7.91016 13.512 8.15625 14.0498 8.64844C14.5921 9.14062 14.8633 9.80599 14.8633 10.6445ZM13.8311 15.2861C13.8311 14.7301 13.6533 14.2767 13.2979 13.9258C12.9469 13.5749 12.4867 13.3994 11.917 13.3994C11.3473 13.3994 10.8893 13.5726 10.543 13.9189C10.2012 14.2653 10.0303 14.721 10.0303 15.2861C10.0303 15.8512 10.1966 16.2956 10.5293 16.6191C10.8665 16.9427 11.3337 17.1045 11.9307 17.1045C12.5231 17.1045 12.988 16.9427 13.3252 16.6191C13.6624 16.291 13.8311 15.8467 13.8311 15.2861ZM11.9307 8.94922C11.4339 8.94922 11.0306 9.10417 10.7207 9.41406C10.4154 9.7194 10.2627 10.1364 10.2627 10.665C10.2627 11.1709 10.4131 11.5811 10.7139 11.8955C11.0192 12.2054 11.4248 12.3604 11.9307 12.3604C12.4365 12.3604 12.8398 12.2054 13.1406 11.8955C13.446 11.5811 13.5986 11.1709 13.5986 10.665C13.5986 10.1592 13.4414 9.74674 13.127 9.42773C12.8125 9.10872 12.4137 8.94922 11.9307 8.94922Z" fill="white"/>
</svg>
