<svg width="24" height="29" viewBox="0 0 24 29" fill="none" xmlns="http://www.w3.org/2000/svg">
<path fill-rule="evenodd" clip-rule="evenodd" d="M24 13C23.793 20.802 12.002 29.001 12.006 29C11.998 29.003 0.218 21.457 0 13V12.793C0 5.728 5.373 0 12 0C18.629 0 24 5.728 24 12.793V13Z" fill="#51A625"/>
<path d="M9.4082 13.0098L9.91406 8.04688H15.0137V9.21582H10.9873L10.6865 11.9297C11.1742 11.6426 11.7279 11.499 12.3477 11.499C13.2546 11.499 13.9746 11.7998 14.5078 12.4014C15.041 12.9984 15.3076 13.8073 15.3076 14.8281C15.3076 15.8535 15.0296 16.6624 14.4736 17.2549C13.9222 17.8428 13.1497 18.1367 12.1562 18.1367C11.2767 18.1367 10.5589 17.8929 10.0029 17.4053C9.44694 16.9176 9.13021 16.2432 9.05273 15.3818H10.249C10.3265 15.9515 10.5293 16.3822 10.8574 16.6738C11.1855 16.9609 11.6185 17.1045 12.1562 17.1045C12.7441 17.1045 13.2044 16.904 13.5371 16.5029C13.8743 16.1019 14.043 15.5482 14.043 14.8418C14.043 14.1764 13.8607 13.6432 13.4961 13.2422C13.1361 12.8366 12.6553 12.6338 12.0537 12.6338C11.5023 12.6338 11.0693 12.7546 10.7549 12.9961L10.4199 13.2695L9.4082 13.0098Z" fill="white"/>
</svg>
