<svg width="15" height="18" viewBox="0 0 15 18" fill="none" xmlns="http://www.w3.org/2000/svg">
<path d="M1.5835 17.3333V11.0833H0.333496V6.5C0.333496 5.58333 1.0835 4.83333 2.00016 4.83333H4.50016C5.41683 4.83333 6.16683 5.58333 6.16683 6.5V11.0833H4.91683V17.3333H1.5835ZM12.0002 17.3333V12.3333H14.5002L12.3835 5.975C12.1502 5.29167 11.5168 4.83333 10.8002 4.83333H10.7002C9.9835 4.83333 9.34183 5.29167 9.11683 5.975L7.00016 12.3333H9.50016V17.3333H12.0002ZM3.25016 4C4.17516 4 4.91683 3.25833 4.91683 2.33333C4.91683 1.40833 4.17516 0.666666 3.25016 0.666666C2.32516 0.666666 1.5835 1.40833 1.5835 2.33333C1.5835 3.25833 2.32516 4 3.25016 4ZM10.7502 4C11.6752 4 12.4168 3.25833 12.4168 2.33333C12.4168 1.40833 11.6752 0.666666 10.7502 0.666666C9.82516 0.666666 9.0835 1.40833 9.0835 2.33333C9.0835 3.25833 9.82516 4 10.7502 4Z" fill="black"/>
</svg>
